<?xml version="1.0" standalone="no"?>
<!DOCTYPE svg PUBLIC "-//W3C//DTD SVG 20010904//EN"
 "http://www.w3.org/TR/2001/REC-SVG-20010904/DTD/svg10.dtd">
<svg version="1.0" xmlns="http://www.w3.org/2000/svg"
 width="165.000000pt" height="165.000000pt" viewBox="0 0 165.000000 165.000000"
 preserveAspectRatio="xMidYMid meet">
<metadata>
Created by potrace 1.11, written by Peter Selinger 2001-2013
</metadata>
<g transform="translate(0.000000,165.000000) scale(0.100000,-0.100000)"
fill="#000000" stroke="none">
<path d="M340 949 l0 -570 48 58 c27 32 56 64 65 72 15 12 17 53 17 421 0 225
3 415 6 424 5 14 40 16 290 16 l284 0 0 -70 c0 -38 3 -70 8 -70 4 0 37 36 75
79 l67 80 0 65 0 66 -430 0 -430 0 0 -571z"/>
<path d="M928 1333 c7 -3 16 -2 19 1 4 3 -2 6 -13 5 -11 0 -14 -3 -6 -6z"/>
<path d="M550 965 c0 -295 5 -359 24 -309 3 9 6 150 6 315 l0 299 183 -2 182
-3 5 -85 c6 -106 21 -90 22 23 l0 82 -211 3 -211 2 0 -325z"/>
<path d="M700 580 l0 -410 90 0 90 0 0 170 0 170 36 0 c54 0 102 -27 128 -74
14 -22 41 -92 61 -153 l37 -113 98 0 99 0 -25 68 c-15 37 -37 101 -51 142 -46
135 -84 189 -158 224 -22 11 -35 23 -31 31 2 7 63 88 135 179 72 91 131 169
131 171 0 3 -48 4 -107 3 l-108 -3 -110 -164 c-60 -91 -116 -166 -122 -169
-10 -3 -13 37 -15 165 l-3 168 -87 3 -88 3 0 -411z"/>
</g>
</svg>
